<?xml version="1.0" standalone="no"?><!DOCTYPE svg PUBLIC "-//W3C//DTD SVG 1.1//EN" "http://www.w3.org/Graphics/SVG/1.1/DTD/svg11.dtd"><svg t="1543301431899" class="icon" style="" viewBox="0 0 1024 1024" version="1.1" xmlns="http://www.w3.org/2000/svg" p-id="3939" xmlns:xlink="http://www.w3.org/1999/xlink" width="200" height="200"><defs><style type="text/css"></style></defs><path d="M480 784a48 48 0 1 1 96 0 48 48 0 0 1-96 0z m74.432-158.144a32 32 0 1 1-64 0v-62.816a32 32 0 0 1 32-32c64.96 0 117.568-60.576 117.568-125.472a117.568 117.568 0 0 0-235.104 0 32 32 0 1 1-64 0 181.568 181.568 0 0 1 363.104 0c0 89.344-64.544 171.52-149.568 186.656v33.6z" p-id="3940" fill="#1296db"></path><path d="M512 992C246.912 992 32 777.088 32 512 32 246.912 246.912 32 512 32c265.088 0 480 214.912 480 480 0 265.088-214.912 480-480 480z m0-64c229.76 0 416-186.24 416-416S741.76 96 512 96 96 282.24 96 512s186.24 416 416 416z" p-id="3941" fill="#1296db"></path></svg>